<svg width="169" height="83" viewBox="0 0 169 83" fill="none" xmlns="http://www.w3.org/2000/svg">
<path d="M10.6879 20.1081C11.8356 13.3541 17.4748 8.27455 24.3116 7.83638L135.489 0.710935C142.059 0.289884 148.115 4.2652 150.341 10.4603L162.738 44.9529C165.945 53.8779 160.035 63.4712 150.621 64.62L19.6807 80.5984C9.86488 81.7962 1.665 73.2024 3.32172 63.4536L10.6879 20.1081Z" fill="#FF5B79"/>
<path d="M44.5315 36.6799C44.2915 36.2399 43.9615 35.9049 43.5415 35.6749C43.1215 35.4449 42.6315 35.3299 42.0715 35.3299C41.4515 35.3299 40.9015 35.4699 40.4215 35.7499C39.9415 36.0299 39.5665 36.4299 39.2965 36.9499C39.0265 37.4699 38.8915 38.0699 38.8915 38.7499C38.8915 39.4499 39.0265 40.0599 39.2965 40.5799C39.5765 41.0999 39.9615 41.4999 40.4515 41.7799C40.9415 42.0599 41.5115 42.1999 42.1615 42.1999C42.9615 42.1999 43.6165 41.9899 44.1265 41.5699C44.6365 41.1399 44.9715 40.5449 45.1315 39.7849H41.5315V38.1799H47.2015V40.0099C47.0615 40.7399 46.7615 41.4149 46.3015 42.0349C45.8415 42.6549 45.2465 43.1549 44.5165 43.5349C43.7965 43.9049 42.9865 44.0899 42.0865 44.0899C41.0765 44.0899 40.1615 43.8649 39.3415 43.4149C38.5315 42.9549 37.8915 42.3199 37.4215 41.5099C36.9615 40.6999 36.7315 39.7799 36.7315 38.7499C36.7315 37.7199 36.9615 36.7999 37.4215 35.9899C37.8915 35.1699 38.5315 34.5349 39.3415 34.0849C40.1615 33.6249 41.0715 33.3949 42.0715 33.3949C43.2515 33.3949 44.2765 33.6849 45.1465 34.2649C46.0165 34.8349 46.6165 35.6399 46.9465 36.6799H44.5315ZM56.4802 39.6649C56.4802 39.9649 56.4602 40.2349 56.4202 40.4749H50.3452C50.3952 41.0749 50.6052 41.5449 50.9752 41.8849C51.3452 42.2249 51.8002 42.3949 52.3402 42.3949C53.1202 42.3949 53.6752 42.0599 54.0052 41.3899H56.2702C56.0302 42.1899 55.5702 42.8499 54.8902 43.3699C54.2102 43.8799 53.3752 44.1349 52.3852 44.1349C51.5852 44.1349 50.8652 43.9599 50.2252 43.6099C49.5952 43.2499 49.1002 42.7449 48.7402 42.0949C48.3902 41.4449 48.2152 40.6949 48.2152 39.8449C48.2152 38.9849 48.3902 38.2299 48.7402 37.5799C49.0902 36.9299 49.5802 36.4299 50.2102 36.0799C50.8402 35.7299 51.5652 35.5549 52.3852 35.5549C53.1752 35.5549 53.8802 35.7249 54.5002 36.0649C55.1302 36.4049 55.6152 36.8899 55.9552 37.5199C56.3052 38.1399 56.4802 38.8549 56.4802 39.6649ZM54.3052 39.0649C54.2952 38.5249 54.1002 38.0949 53.7202 37.7749C53.3402 37.4449 52.8752 37.2799 52.3252 37.2799C51.8052 37.2799 51.3652 37.4399 51.0052 37.7599C50.6552 38.0699 50.4402 38.5049 50.3602 39.0649H54.3052ZM60.458 37.4149V41.4349C60.458 41.7149 60.523 41.9199 60.653 42.0499C60.793 42.1699 61.023 42.2299 61.343 42.2299H62.318V43.9999H60.998C59.228 43.9999 58.343 43.1399 58.343 41.4199V37.4149H57.353V35.6899H58.343V33.6349H60.458V35.6899H62.318V37.4149H60.458ZM71.0177 44.1049C70.2877 44.1049 69.6277 43.9799 69.0377 43.7299C68.4577 43.4799 67.9977 43.1199 67.6577 42.6499C67.3177 42.1799 67.1427 41.6249 67.1327 40.9849H69.3827C69.4127 41.4149 69.5627 41.7549 69.8327 42.0049C70.1127 42.2549 70.4927 42.3799 70.9727 42.3799C71.4627 42.3799 71.8477 42.2649 72.1277 42.0349C72.4077 41.7949 72.5477 41.4849 72.5477 41.1049C72.5477 40.7949 72.4527 40.5399 72.2627 40.3399C72.0727 40.1399 71.8327 39.9849 71.5427 39.8749C71.2627 39.7549 70.8727 39.6249 70.3727 39.4849C69.6927 39.2849 69.1377 39.0899 68.7077 38.8999C68.2877 38.6999 67.9227 38.4049 67.6127 38.0149C67.3127 37.6149 67.1627 37.0849 67.1627 36.4249C67.1627 35.8049 67.3177 35.2649 67.6277 34.8049C67.9377 34.3449 68.3727 33.9949 68.9327 33.7549C69.4927 33.5049 70.1327 33.3799 70.8527 33.3799C71.9327 33.3799 72.8077 33.6449 73.4777 34.1749C74.1577 34.6949 74.5327 35.4249 74.6027 36.3649H72.2927C72.2727 36.0049 72.1177 35.7099 71.8277 35.4799C71.5477 35.2399 71.1727 35.1199 70.7027 35.1199C70.2927 35.1199 69.9627 35.2249 69.7127 35.4349C69.4727 35.6449 69.3527 35.9499 69.3527 36.3499C69.3527 36.6299 69.4427 36.8649 69.6227 37.0549C69.8127 37.2349 70.0427 37.3849 70.3127 37.5049C70.5927 37.6149 70.9827 37.7449 71.4827 37.8949C72.1627 38.0949 72.7177 38.2949 73.1477 38.4949C73.5777 38.6949 73.9477 38.9949 74.2577 39.3949C74.5677 39.7949 74.7227 40.3199 74.7227 40.9699C74.7227 41.5299 74.5777 42.0499 74.2877 42.5299C73.9977 43.0099 73.5727 43.3949 73.0127 43.6849C72.4527 43.9649 71.7877 44.1049 71.0177 44.1049ZM78.9883 37.4149V41.4349C78.9883 41.7149 79.0533 41.9199 79.1833 42.0499C79.3233 42.1699 79.5533 42.2299 79.8733 42.2299H80.8483V43.9999H79.5283C77.7583 43.9999 76.8733 43.1399 76.8733 41.4199V37.4149H75.8833V35.6899H76.8733V33.6349H78.9883V35.6899H80.8483V37.4149H78.9883ZM81.8187 39.8149C81.8187 38.9749 81.9837 38.2299 82.3137 37.5799C82.6537 36.9299 83.1087 36.4299 83.6787 36.0799C84.2587 35.7299 84.9037 35.5549 85.6137 35.5549C86.2337 35.5549 86.7737 35.6799 87.2337 35.9299C87.7037 36.1799 88.0787 36.4949 88.3587 36.8749V35.6899H90.4737V43.9999H88.3587V42.7849C88.0887 43.1749 87.7137 43.4999 87.2337 43.7599C86.7637 44.0099 86.2187 44.1349 85.5987 44.1349C84.8987 44.1349 84.2587 43.9549 83.6787 43.5949C83.1087 43.2349 82.6537 42.7299 82.3137 42.0799C81.9837 41.4199 81.8187 40.6649 81.8187 39.8149ZM88.3587 39.8449C88.3587 39.3349 88.2587 38.8999 88.0587 38.5399C87.8587 38.1699 87.5887 37.8899 87.2487 37.6999C86.9087 37.4999 86.5437 37.3999 86.1537 37.3999C85.7637 37.3999 85.4037 37.4949 85.0737 37.6849C84.7437 37.8749 84.4737 38.1549 84.2637 38.5249C84.0637 38.8849 83.9637 39.3149 83.9637 39.8149C83.9637 40.3149 84.0637 40.7549 84.2637 41.1349C84.4737 41.5049 84.7437 41.7899 85.0737 41.9899C85.4137 42.1899 85.7737 42.2899 86.1537 42.2899C86.5437 42.2899 86.9087 42.1949 87.2487 42.0049C87.5887 41.8049 87.8587 41.5249 88.0587 41.1649C88.2587 40.7949 88.3587 40.3549 88.3587 39.8449ZM94.6247 36.9799C94.8947 36.5399 95.2447 36.1949 95.6747 35.9449C96.1147 35.6949 96.6147 35.5699 97.1747 35.5699V37.7749H96.6197C95.9597 37.7749 95.4597 37.9299 95.1197 38.2399C94.7897 38.5499 94.6247 39.0899 94.6247 39.8599V43.9999H92.5247V35.6899H94.6247V36.9799ZM101.034 37.4149V41.4349C101.034 41.7149 101.099 41.9199 101.229 42.0499C101.369 42.1699 101.599 42.2299 101.919 42.2299H102.894V43.9999H101.574C99.8042 43.9999 98.9192 43.1399 98.9192 41.4199V37.4149H97.9292V35.6899H98.9192V33.6349H101.034V35.6899H102.894V37.4149H101.034ZM112.13 39.6649C112.13 39.9649 112.11 40.2349 112.07 40.4749H105.995C106.045 41.0749 106.255 41.5449 106.625 41.8849C106.995 42.2249 107.45 42.3949 107.99 42.3949C108.77 42.3949 109.325 42.0599 109.655 41.3899H111.92C111.68 42.1899 111.22 42.8499 110.54 43.3699C109.86 43.8799 109.025 44.1349 108.035 44.1349C107.235 44.1349 106.515 43.9599 105.875 43.6099C105.245 43.2499 104.75 42.7449 104.39 42.0949C104.04 41.4449 103.865 40.6949 103.865 39.8449C103.865 38.9849 104.04 38.2299 104.39 37.5799C104.74 36.9299 105.23 36.4299 105.86 36.0799C106.49 35.7299 107.215 35.5549 108.035 35.5549C108.825 35.5549 109.53 35.7249 110.15 36.0649C110.78 36.4049 111.265 36.8899 111.605 37.5199C111.955 38.1399 112.13 38.8549 112.13 39.6649ZM109.955 39.0649C109.945 38.5249 109.75 38.0949 109.37 37.7749C108.99 37.4449 108.525 37.2799 107.975 37.2799C107.455 37.2799 107.015 37.4399 106.655 37.7599C106.305 38.0699 106.09 38.5049 106.01 39.0649H109.955ZM113.122 39.8149C113.122 38.9749 113.287 38.2299 113.617 37.5799C113.957 36.9299 114.417 36.4299 114.997 36.0799C115.577 35.7299 116.222 35.5549 116.932 35.5549C117.472 35.5549 117.987 35.6749 118.477 35.9149C118.967 36.1449 119.357 36.4549 119.647 36.8449V32.8999H121.777V43.9999H119.647V42.7699C119.387 43.1799 119.022 43.5099 118.552 43.7599C118.082 44.0099 117.537 44.1349 116.917 44.1349C116.217 44.1349 115.577 43.9549 114.997 43.5949C114.417 43.2349 113.957 42.7299 113.617 42.0799C113.287 41.4199 113.122 40.6649 113.122 39.8149ZM119.662 39.8449C119.662 39.3349 119.562 38.8999 119.362 38.5399C119.162 38.1699 118.892 37.8899 118.552 37.6999C118.212 37.4999 117.847 37.3999 117.457 37.3999C117.067 37.3999 116.707 37.4949 116.377 37.6849C116.047 37.8749 115.777 38.1549 115.567 38.5249C115.367 38.8849 115.267 39.3149 115.267 39.8149C115.267 40.3149 115.367 40.7549 115.567 41.1349C115.777 41.5049 116.047 41.7899 116.377 41.9899C116.717 42.1899 117.077 42.2899 117.457 42.2899C117.847 42.2899 118.212 42.1949 118.552 42.0049C118.892 41.8049 119.162 41.5249 119.362 41.1649C119.562 40.7949 119.662 40.3549 119.662 39.8449Z" fill="white"/>
</svg>
