<svg width="30" height="27" viewBox="0 0 30 27" fill="none" xmlns="http://www.w3.org/2000/svg">
<path fill-rule="evenodd" clip-rule="evenodd" d="M9.80071 0.623353C12.999 -0.207784 16.3567 -0.207784 19.555 0.623353L20.0872 0.761675C25.6997 2.22017 29.4547 7.49784 28.9928 13.2783L28.8965 14.4828C28.5973 18.2273 26.2206 21.4866 22.7468 22.9162C22.3387 23.0841 21.9958 23.3795 21.7692 23.7582L20.9647 25.103C20.6194 25.6801 20.0718 26.1081 19.4285 26.3038L19.3915 26.315C19.2693 26.3522 19.1417 26.3684 19.014 26.3628C18.4062 26.3364 17.8905 25.908 17.7532 25.3153L17.726 25.1981C17.6067 24.6831 16.8761 24.6754 16.746 25.1878L16.7244 25.2727C16.5644 25.903 16.0338 26.3703 15.3883 26.4495L14.9537 26.5028C14.8043 26.5212 14.6532 26.5212 14.5037 26.5028L14.02 26.4435C13.4042 26.3679 12.8979 25.922 12.7452 25.3207L12.7148 25.2011C12.5907 24.7123 11.8901 24.7305 11.7916 25.2251L11.7759 25.3035C11.6572 25.8992 11.1469 26.3367 10.5401 26.3631C10.4158 26.3685 10.2916 26.3527 10.1726 26.3165L10.1235 26.3016C9.48319 26.1068 8.93391 25.6889 8.5754 25.1237L7.71572 23.7684C7.47149 23.3833 7.10793 23.0888 6.68058 22.9299C2.85868 21.5084 0.254222 17.9429 0.0624803 13.8698L0.0131487 12.8218C-0.248521 7.26319 3.42015 2.28146 8.80606 0.881831L9.80071 0.623353ZM7.34714 14.5074C9.50155 14.5074 11.2481 12.7609 11.2481 10.6064C11.2481 8.45203 9.50155 6.70553 7.34714 6.70553C5.19272 6.70553 3.44622 8.45203 3.44622 10.6064C3.44622 12.7609 5.19272 14.5074 7.34714 14.5074ZM22.0086 14.5074C24.163 14.5074 25.9095 12.7609 25.9095 10.6064C25.9095 8.45203 24.163 6.70553 22.0086 6.70553C19.8541 6.70553 18.1076 8.45203 18.1076 10.6064C18.1076 12.7609 19.8541 14.5074 22.0086 14.5074Z" fill="white"/>
</svg>
