<svg width="874" height="861" viewBox="0 0 874 861" fill="none" xmlns="http://www.w3.org/2000/svg">
<g filter="url(#filter0_f_2_116)">
<ellipse cx="434.673" cy="476.178" rx="292.135" ry="283.822" fill="url(#paint0_linear_2_116)"/>
</g>
<g opacity="0.4" filter="url(#filter1_f_2_116)">
<ellipse cx="434.673" cy="476.178" rx="267.79" ry="260.071" fill="url(#paint1_linear_2_116)"/>
</g>
<g filter="url(#filter2_f_2_116)">
<path d="M508.792 42.1322C604.213 72.7112 606.292 321.127 660.573 190.589C697.443 297.798 626.185 464.249 722.058 379.501C704.569 555.986 586.696 618.09 652.016 604.85C539.487 721.491 365.2 728.427 292.754 635.744C306.813 635.744 308.193 634.798 308.193 618.09C195.798 594.684 141.369 512.065 142.557 455.716C148.696 471.489 155.413 498.375 185.591 502.709C223.313 508.128 150.577 320.985 198.696 282.336C245.566 460.781 218.251 225.606 330.186 162.872C353.939 321.112 531.173 183.048 508.792 42.1322Z" fill="url(#paint2_linear_2_116)"/>
</g>
<g filter="url(#filter3_f_2_116)">
<path d="M586.572 65.6481C605.256 213.267 459.733 158.497 482.175 -65.637C392.459 0.865204 344.074 113.318 298.997 157.027C271.734 183.462 185.962 161.777 225.37 65.6481C131.99 161.314 183.317 293.408 101.865 218.779C59.7077 794.142 933.196 833.974 698.283 170.848C658.463 327.988 681.67 120.892 586.572 65.6481Z" fill="url(#paint3_radial_2_116)"/>
</g>
<g opacity="0.1" filter="url(#filter4_f_2_116)">
<path d="M441.874 27.288C355.131 51.0153 343.502 280.675 294.158 179.386C194.242 263.682 227.834 383.967 140.68 318.208C-37.2475 808.617 965.385 834.883 714.028 250.576C671.42 389.038 696.252 206.558 594.497 157.88C614.489 287.953 417.861 224.781 441.874 27.288Z" fill="url(#paint4_linear_2_116)"/>
</g>
<g filter="url(#filter5_f_2_116)">
<path d="M440.908 77.4616C370.711 98.6487 361.3 303.721 321.368 213.276C240.51 288.547 267.694 395.955 197.165 337.236C53.1759 775.141 864.563 798.595 661.151 276.844C626.67 400.483 646.765 237.538 564.419 194.072C580.598 310.219 421.475 253.811 440.908 77.4616Z" fill="url(#paint5_linear_2_116)"/>
</g>
<mask id="mask0_2_116" style="mask-type:alpha" maskUnits="userSpaceOnUse" x="208" y="266" width="458" height="419">
<path d="M516.258 276.45C465.871 263.356 412.975 263.356 362.589 276.45L346.919 280.522C262.069 302.572 204.273 381.054 208.395 468.625L209.172 485.134C212.193 549.303 253.224 605.474 313.434 627.868C320.166 630.372 325.894 635.011 329.742 641.077L343.285 662.429C348.933 671.333 357.586 677.917 367.674 680.986L368.447 681.221C370.322 681.791 372.279 682.039 374.237 681.954C383.796 681.539 391.835 674.647 393.706 665.262L393.952 664.026C395.505 656.235 406.542 655.948 408.498 663.648L408.976 665.533C411.382 675.006 419.358 682.031 429.06 683.221L436.68 684.156C439.034 684.445 441.415 684.445 443.769 684.156L450.616 683.316C460.784 682.068 469.143 674.706 471.665 664.777L472.005 663.439C474.055 655.367 485.565 655.488 487.444 663.602L487.872 665.448C490.036 674.785 498.159 681.535 507.735 681.951C509.746 682.038 511.757 681.783 513.683 681.198L514.264 681.021C524.4 677.937 533.027 671.194 538.466 662.103L551.14 640.917C554.71 634.951 560.112 630.298 566.542 627.652C621.268 605.13 658.71 553.783 663.425 494.792L664.941 475.816C672.219 384.751 613.062 301.606 524.643 278.629L516.258 276.45Z" fill="#FFF0D3"/>
</mask>
<g mask="url(#mask0_2_116)">
<g filter="url(#filter6_di_2_116)">
<path d="M516.258 276.45C465.871 263.356 412.975 263.356 362.589 276.45L346.919 280.522C262.069 302.572 204.273 381.054 208.395 468.625L209.172 485.134C212.193 549.303 253.224 605.474 313.434 627.868C320.166 630.372 325.894 635.011 329.742 641.077L343.285 662.429C348.933 671.333 357.586 677.917 367.674 680.986L368.447 681.221C370.322 681.791 372.279 682.039 374.237 681.954C383.796 681.539 391.835 674.647 393.706 665.262L393.952 664.026C395.505 656.235 406.542 655.948 408.498 663.648L408.976 665.533C411.382 675.006 419.358 682.031 429.06 683.221L436.68 684.156C439.034 684.445 441.415 684.445 443.769 684.156L450.616 683.316C460.784 682.068 469.143 674.706 471.665 664.777L472.005 663.439C474.055 655.367 485.565 655.488 487.444 663.602L487.872 665.448C490.036 674.785 498.159 681.535 507.735 681.951C509.746 682.038 511.757 681.783 513.683 681.198L514.264 681.021C524.4 677.937 533.027 671.194 538.466 662.103L551.14 640.917C554.71 634.951 560.112 630.298 566.542 627.652C621.268 605.13 658.71 553.783 663.425 494.792L664.941 475.816C672.219 384.751 613.062 301.606 524.643 278.629L516.258 276.45Z" fill="url(#paint6_radial_2_116)"/>
</g>
<g filter="url(#filter7_f_2_116)">
<ellipse cx="368.171" cy="283.797" rx="80.7527" ry="31.4698" fill="white"/>
</g>
<g filter="url(#filter8_f_2_116)">
<ellipse cx="368.171" cy="283.797" rx="51.658" ry="20.1882" fill="white"/>
</g>
<g opacity="0.4" filter="url(#filter9_f_2_116)">
<path d="M287.862 569.882C285.61 539.677 307.224 512.924 337.228 508.78L410.187 498.704C424.267 496.759 438.547 496.759 452.628 498.704L525.297 508.74C555.43 512.902 577.095 539.831 574.708 570.156C570.889 618.67 530.407 656.09 481.743 656.09H380.739C331.989 656.09 291.488 618.497 287.862 569.882Z" fill="url(#paint7_linear_2_116)"/>
</g>
<g filter="url(#filter10_dd_2_116)">
<circle cx="323.935" cy="433.723" r="61.4552" fill="url(#paint8_linear_2_116)"/>
</g>
<g filter="url(#filter11_dd_2_116)">
<circle cx="554.911" cy="433.724" r="61.4552" fill="url(#paint9_linear_2_116)"/>
</g>
<g filter="url(#filter12_f_2_116)">
<ellipse cx="55.1478" cy="12.5969" rx="55.1478" ry="12.5969" transform="matrix(0.771824 -0.635836 0.664722 0.747091 494.644 678.888)" fill="white"/>
</g>
<g filter="url(#filter13_f_2_116)">
<ellipse cx="18.8145" cy="6.67382" rx="18.8145" ry="6.67382" transform="matrix(0.771824 -0.635836 0.664722 0.747091 515.659 676.498)" fill="white"/>
</g>
<g filter="url(#filter14_f_2_116)">
<ellipse cx="466.958" cy="680.904" rx="27.6765" ry="14.1939" transform="rotate(-40.5683 466.958 680.904)" fill="white"/>
</g>
<g filter="url(#filter15_f_2_116)">
<ellipse cx="389.806" cy="684.43" rx="39.7783" ry="14.1939" transform="rotate(-40.5683 389.806 684.43)" fill="white"/>
</g>
</g>
<g filter="url(#filter16_f_2_116)">
<ellipse cx="415.673" cy="270.14" rx="96.7845" ry="54.0331" fill="url(#paint10_linear_2_116)"/>
</g>
<defs>
<filter id="filter0_f_2_116" x="23.7845" y="73.602" width="821.777" height="805.152" filterUnits="userSpaceOnUse" color-interpolation-filters="sRGB">
<feFlood flood-opacity="0" result="BackgroundImageFix"/>
<feBlend mode="normal" in="SourceGraphic" in2="BackgroundImageFix" result="shape"/>
<feGaussianBlur stdDeviation="59.377" result="effect1_foregroundBlur_2_116"/>
</filter>
<filter id="filter1_f_2_116" x="48.1291" y="97.353" width="773.088" height="757.65" filterUnits="userSpaceOnUse" color-interpolation-filters="sRGB">
<feFlood flood-opacity="0" result="BackgroundImageFix"/>
<feBlend mode="normal" in="SourceGraphic" in2="BackgroundImageFix" result="shape"/>
<feGaussianBlur stdDeviation="59.377" result="effect1_foregroundBlur_2_116"/>
</filter>
<filter id="filter2_f_2_116" x="95.0369" y="-5.36939" width="674.523" height="752.306" filterUnits="userSpaceOnUse" color-interpolation-filters="sRGB">
<feFlood flood-opacity="0" result="BackgroundImageFix"/>
<feBlend mode="normal" in="SourceGraphic" in2="BackgroundImageFix" result="shape"/>
<feGaussianBlur stdDeviation="23.7508" result="effect1_foregroundBlur_2_116"/>
</filter>
<filter id="filter3_f_2_116" x="73.9719" y="-92.049" width="690.91" height="777.713" filterUnits="userSpaceOnUse" color-interpolation-filters="sRGB">
<feFlood flood-opacity="0" result="BackgroundImageFix"/>
<feBlend mode="normal" in="SourceGraphic" in2="BackgroundImageFix" result="shape"/>
<feGaussianBlur stdDeviation="13.206" result="effect1_foregroundBlur_2_116"/>
</filter>
<filter id="filter4_f_2_116" x="0.627365" y="-91.466" width="872.842" height="897.78" filterUnits="userSpaceOnUse" color-interpolation-filters="sRGB">
<feFlood flood-opacity="0" result="BackgroundImageFix"/>
<feBlend mode="normal" in="SourceGraphic" in2="BackgroundImageFix" result="shape"/>
<feGaussianBlur stdDeviation="59.377" result="effect1_foregroundBlur_2_116"/>
</filter>
<filter id="filter5_f_2_116" x="159.147" y="56.6797" width="555.712" height="631.147" filterUnits="userSpaceOnUse" color-interpolation-filters="sRGB">
<feFlood flood-opacity="0" result="BackgroundImageFix"/>
<feBlend mode="normal" in="SourceGraphic" in2="BackgroundImageFix" result="shape"/>
<feGaussianBlur stdDeviation="10.391" result="effect1_foregroundBlur_2_116"/>
</filter>
<filter id="filter6_di_2_116" x="188.593" y="251.579" width="487.64" height="441.107" filterUnits="userSpaceOnUse" color-interpolation-filters="sRGB">
<feFlood flood-opacity="0" result="BackgroundImageFix"/>
<feColorMatrix in="SourceAlpha" type="matrix" values="0 0 0 0 0 0 0 0 0 0 0 0 0 0 0 0 0 0 127 0" result="hardAlpha"/>
<feOffset dx="7.71901" dy="5.34393"/>
<feGaussianBlur stdDeviation="1.48442"/>
<feColorMatrix type="matrix" values="0 0 0 0 1 0 0 0 0 0 0 0 0 0 0.12 0 0 0 1 0"/>
<feBlend mode="normal" in2="BackgroundImageFix" result="effect1_dropShadow_2_116"/>
<feBlend mode="normal" in="SourceGraphic" in2="effect1_dropShadow_2_116" result="shape"/>
<feColorMatrix in="SourceAlpha" type="matrix" values="0 0 0 0 0 0 0 0 0 0 0 0 0 0 0 0 0 0 127 0" result="hardAlpha"/>
<feOffset dx="-19.5944" dy="-15.0507"/>
<feGaussianBlur stdDeviation="15.0507"/>
<feComposite in2="hardAlpha" operator="arithmetic" k2="-1" k3="1"/>
<feColorMatrix type="matrix" values="0 0 0 0 0 0 0 0 0 1 0 0 0 0 0.94 0 0 0 0.31 0"/>
<feBlend mode="normal" in2="shape" result="effect2_innerShadow_2_116"/>
</filter>
<filter id="filter7_f_2_116" x="228.041" y="192.95" width="280.259" height="181.694" filterUnits="userSpaceOnUse" color-interpolation-filters="sRGB">
<feFlood flood-opacity="0" result="BackgroundImageFix"/>
<feBlend mode="normal" in="SourceGraphic" in2="BackgroundImageFix" result="shape"/>
<feGaussianBlur stdDeviation="29.6885" result="effect1_foregroundBlur_2_116"/>
</filter>
<filter id="filter8_f_2_116" x="257.136" y="204.232" width="222.07" height="159.13" filterUnits="userSpaceOnUse" color-interpolation-filters="sRGB">
<feFlood flood-opacity="0" result="BackgroundImageFix"/>
<feBlend mode="normal" in="SourceGraphic" in2="BackgroundImageFix" result="shape"/>
<feGaussianBlur stdDeviation="29.6885" result="effect1_foregroundBlur_2_116"/>
</filter>
<filter id="filter9_f_2_116" x="198.636" y="408.18" width="465.317" height="336.976" filterUnits="userSpaceOnUse" color-interpolation-filters="sRGB">
<feFlood flood-opacity="0" result="BackgroundImageFix"/>
<feBlend mode="normal" in="SourceGraphic" in2="BackgroundImageFix" result="shape"/>
<feGaussianBlur stdDeviation="44.5327" result="effect1_foregroundBlur_2_116"/>
</filter>
<filter id="filter10_dd_2_116" x="230.084" y="353.212" width="201.039" height="204.851" filterUnits="userSpaceOnUse" color-interpolation-filters="sRGB">
<feFlood flood-opacity="0" result="BackgroundImageFix"/>
<feColorMatrix in="SourceAlpha" type="matrix" values="0 0 0 0 0 0 0 0 0 0 0 0 0 0 0 0 0 0 127 0" result="hardAlpha"/>
<feOffset dx="6.66956" dy="23.8198"/>
<feGaussianBlur stdDeviation="19.5323"/>
<feColorMatrix type="matrix" values="0 0 0 0 0.758333 0 0 0 0 0.408363 0 0 0 0 0.0853125 0 0 0 0.77 0"/>
<feBlend mode="normal" in2="BackgroundImageFix" result="effect1_dropShadow_2_116"/>
<feColorMatrix in="SourceAlpha" type="matrix" values="0 0 0 0 0 0 0 0 0 0 0 0 0 0 0 0 0 0 127 0" result="hardAlpha"/>
<feOffset dx="-4.76397" dy="-4.76397"/>
<feGaussianBlur stdDeviation="7.14595"/>
<feColorMatrix type="matrix" values="0 0 0 0 1 0 0 0 0 1 0 0 0 0 1 0 0 0 0.59 0"/>
<feBlend mode="normal" in2="effect1_dropShadow_2_116" result="effect2_dropShadow_2_116"/>
<feBlend mode="normal" in="SourceGraphic" in2="effect2_dropShadow_2_116" result="shape"/>
</filter>
<filter id="filter11_dd_2_116" x="447.722" y="353.212" width="201.039" height="204.851" filterUnits="userSpaceOnUse" color-interpolation-filters="sRGB">
<feFlood flood-opacity="0" result="BackgroundImageFix"/>
<feColorMatrix in="SourceAlpha" type="matrix" values="0 0 0 0 0 0 0 0 0 0 0 0 0 0 0 0 0 0 127 0" result="hardAlpha"/>
<feOffset dx="-6.66956" dy="23.8198"/>
<feGaussianBlur stdDeviation="19.5323"/>
<feColorMatrix type="matrix" values="0 0 0 0 0.758333 0 0 0 0 0.408363 0 0 0 0 0.0853125 0 0 0 0.77 0"/>
<feBlend mode="normal" in2="BackgroundImageFix" result="effect1_dropShadow_2_116"/>
<feColorMatrix in="SourceAlpha" type="matrix" values="0 0 0 0 0 0 0 0 0 0 0 0 0 0 0 0 0 0 127 0" result="hardAlpha"/>
<feOffset dx="4.76397" dy="-4.76397"/>
<feGaussianBlur stdDeviation="7.14595"/>
<feColorMatrix type="matrix" values="0 0 0 0 1 0 0 0 0 1 0 0 0 0 1 0 0 0 0.59 0"/>
<feBlend mode="normal" in2="effect1_dropShadow_2_116" result="effect2_dropShadow_2_116"/>
<feBlend mode="normal" in="SourceGraphic" in2="effect2_dropShadow_2_116" result="shape"/>
</filter>
<filter id="filter12_f_2_116" x="460.629" y="575.355" width="169.905" height="155.758" filterUnits="userSpaceOnUse" color-interpolation-filters="sRGB">
<feFlood flood-opacity="0" result="BackgroundImageFix"/>
<feBlend mode="normal" in="SourceGraphic" in2="BackgroundImageFix" result="shape"/>
<feGaussianBlur stdDeviation="20.7819" result="effect1_foregroundBlur_2_116"/>
</filter>
<filter id="filter13_f_2_116" x="495.678" y="632.807" width="77.8777" height="73.4292" filterUnits="userSpaceOnUse" color-interpolation-filters="sRGB">
<feFlood flood-opacity="0" result="BackgroundImageFix"/>
<feBlend mode="normal" in="SourceGraphic" in2="BackgroundImageFix" result="shape"/>
<feGaussianBlur stdDeviation="11.8754" result="effect1_foregroundBlur_2_116"/>
</filter>
<filter id="filter14_f_2_116" x="402.427" y="618.355" width="129.062" height="125.098" filterUnits="userSpaceOnUse" color-interpolation-filters="sRGB">
<feFlood flood-opacity="0" result="BackgroundImageFix"/>
<feBlend mode="normal" in="SourceGraphic" in2="BackgroundImageFix" result="shape"/>
<feGaussianBlur stdDeviation="20.7819" result="effect1_foregroundBlur_2_116"/>
</filter>
<filter id="filter15_f_2_116" x="316.638" y="614.832" width="146.335" height="139.196" filterUnits="userSpaceOnUse" color-interpolation-filters="sRGB">
<feFlood flood-opacity="0" result="BackgroundImageFix"/>
<feBlend mode="normal" in="SourceGraphic" in2="BackgroundImageFix" result="shape"/>
<feGaussianBlur stdDeviation="20.7819" result="effect1_foregroundBlur_2_116"/>
</filter>
<filter id="filter16_f_2_116" x="239.871" y="137.09" width="351.603" height="266.1" filterUnits="userSpaceOnUse" color-interpolation-filters="sRGB">
<feFlood flood-opacity="0" result="BackgroundImageFix"/>
<feBlend mode="normal" in="SourceGraphic" in2="BackgroundImageFix" result="shape"/>
<feGaussianBlur stdDeviation="39.5085" result="effect1_foregroundBlur_2_116"/>
</filter>
<linearGradient id="paint0_linear_2_116" x1="434.673" y1="192.356" x2="434.673" y2="760" gradientUnits="userSpaceOnUse">
<stop stop-color="#50FF76" stop-opacity="0.38"/>
<stop offset="1" stop-color="#50FFA0" stop-opacity="0"/>
</linearGradient>
<linearGradient id="paint1_linear_2_116" x1="434.673" y1="216.107" x2="434.673" y2="460.38" gradientUnits="userSpaceOnUse">
<stop stop-color="#FFFACE"/>
<stop offset="1" stop-color="white" stop-opacity="0"/>
</linearGradient>
<linearGradient id="paint2_linear_2_116" x1="645.165" y1="130.01" x2="433.49" y2="716.924" gradientUnits="userSpaceOnUse">
<stop stop-color="#FFFBA0" stop-opacity="0.15"/>
<stop offset="1" stop-color="#3AFFE7" stop-opacity="0.06"/>
</linearGradient>
<radialGradient id="paint3_radial_2_116" cx="0" cy="0" r="1" gradientUnits="userSpaceOnUse" gradientTransform="translate(326.31 219.076) rotate(-0.802419) scale(211.997 343.368)">
<stop stop-color="#EDFFA4" stop-opacity="0.3"/>
<stop offset="1" stop-color="#B2FF50" stop-opacity="0"/>
</radialGradient>
<linearGradient id="paint4_linear_2_116" x1="712.617" y1="196.188" x2="398.744" y2="596.52" gradientUnits="userSpaceOnUse">
<stop stop-color="#301758"/>
<stop offset="1" stop-color="#301658"/>
</linearGradient>
<linearGradient id="paint5_linear_2_116" x1="660.009" y1="228.279" x2="374.406" y2="558.415" gradientUnits="userSpaceOnUse">
<stop stop-color="#EDFFA4" stop-opacity="0.3"/>
<stop offset="1" stop-color="#B2FF50" stop-opacity="0.17"/>
</linearGradient>
<radialGradient id="paint6_radial_2_116" cx="0" cy="0" r="1" gradientUnits="userSpaceOnUse" gradientTransform="translate(439.423 317.048) rotate(91.118) scale(380.382 307.409)">
<stop stop-color="#FFF0D3"/>
<stop offset="0.420971" stop-color="#FFED48" stop-opacity="0.990923"/>
<stop offset="0.829897" stop-color="#FFD643" stop-opacity="0.77"/>
<stop offset="1" stop-color="#C69F17"/>
</radialGradient>
<linearGradient id="paint7_linear_2_116" x1="431.407" y1="495.773" x2="431.407" y2="656.09" gradientUnits="userSpaceOnUse">
<stop stop-color="#9E4722"/>
<stop offset="1" stop-color="#BB391C" stop-opacity="0.87"/>
</linearGradient>
<linearGradient id="paint8_linear_2_116" x1="323.935" y1="381.083" x2="323.983" y2="506.073" gradientUnits="userSpaceOnUse">
<stop stop-color="#2E1E65"/>
<stop offset="1" stop-color="#11082F"/>
</linearGradient>
<linearGradient id="paint9_linear_2_116" x1="554.911" y1="381.083" x2="554.96" y2="506.073" gradientUnits="userSpaceOnUse">
<stop stop-color="#2E1E65"/>
<stop offset="1" stop-color="#11082F"/>
</linearGradient>
<linearGradient id="paint10_linear_2_116" x1="331.714" y1="238.989" x2="373.409" y2="332.451" gradientUnits="userSpaceOnUse">
<stop stop-color="white" stop-opacity="0.71"/>
<stop offset="1" stop-color="#FFFFF8" stop-opacity="0.7"/>
</linearGradient>
</defs>
</svg>
